<svg width="69" height="40" viewBox="0 0 69 40" fill="none" xmlns="http://www.w3.org/2000/svg">
<path fill-rule="evenodd" clip-rule="evenodd" d="M0 13.8382L39.1008 39.7145L39.2162 13.8382H0Z" fill="#6BC4E8"/>
<path fill-rule="evenodd" clip-rule="evenodd" d="M39.1006 -0.00012207V13.6848V14.077L66.0681 14.208L39.1006 -0.00012207Z" fill="#0033A1"/>
<path fill-rule="evenodd" clip-rule="evenodd" d="M66.3664 21.5617L39.1016 39.7144V13.8381H64.4353C66.7757 13.8617 68.2709 15.7524 68.2901 18.0883C68.1686 19.4654 67.4697 20.7271 66.3664 21.5617Z" fill="#F75200"/>
<path fill-rule="evenodd" clip-rule="evenodd" d="M47.0351 39.893H46.7484V38.0987H46.0908V37.8469H47.6919V38.0987H47.0351V39.893Z" fill="#6BC4E8"/>
<path fill-rule="evenodd" clip-rule="evenodd" d="M49.0245 39.4191H49.0306L49.6354 37.8469H50.0816V39.893H49.7949V38.1824H49.7888L49.1083 39.893H48.9263L48.2487 38.1824H48.2429V39.893H47.9648V37.8469H48.4106L49.0245 39.4191Z" fill="#6BC4E8"/>
</svg>
