<svg width="40" height="40" viewBox="0 0 40 40" fill="none" xmlns="http://www.w3.org/2000/svg">
<path fill-rule="evenodd" clip-rule="evenodd" d="M25.1937 13.32L23.3112 13.3212C21.835 13.3212 21.5487 14.0225 21.5487 15.0513V17.3213H25.07L24.6112 20.8775H21.5487V30H17.8775V20.8775H14.8075V17.3213H17.8775V14.7C17.8775 11.6562 19.7362 10 22.45 10C23.75 10 24.8675 10.0962 25.1937 10.14V13.32ZM20 0C8.955 0 0 8.95375 0 20C0 31.045 8.955 40 20 40C31.0462 40 40 31.045 40 20C40 8.95375 31.0462 0 20 0Z" fill="black"/>
<mask id="mask0_8965_12333" style="mask-type:luminance" maskUnits="userSpaceOnUse" x="0" y="0" width="40" height="40">
<path fill-rule="evenodd" clip-rule="evenodd" d="M25.1937 13.32L23.3112 13.3212C21.835 13.3212 21.5487 14.0225 21.5487 15.0513V17.3213H25.07L24.6112 20.8775H21.5487V30H17.8775V20.8775H14.8075V17.3213H17.8775V14.7C17.8775 11.6562 19.7362 10 22.45 10C23.75 10 24.8675 10.0962 25.1937 10.14V13.32ZM20 0C8.955 0 0 8.95375 0 20C0 31.045 8.955 40 20 40C31.0462 40 40 31.045 40 20C40 8.95375 31.0462 0 20 0Z" fill="white"/>
</mask>
<g mask="url(#mask0_8965_12333)">
<rect width="40" height="40" fill="#050044"/>
</g>
</svg>
