<svg width="40" height="40" viewBox="0 0 40 40" fill="none" xmlns="http://www.w3.org/2000/svg">
<path fill-rule="evenodd" clip-rule="evenodd" d="M30 29.9813H25.8563V23.4963C25.8563 21.95 25.8288 19.9613 23.7025 19.9613C21.5462 19.9613 21.2175 21.6462 21.2175 23.3862V29.9813H17.0775V16.6462H21.05V18.47H21.1075C21.66 17.4213 23.0125 16.315 25.0287 16.315C29.225 16.315 30 19.0763 30 22.6675V29.9813ZM12.405 14.825C11.0737 14.825 10 13.7475 10 12.4212C10 11.095 11.0737 10.0175 12.405 10.0175C13.73 10.0175 14.8062 11.095 14.8062 12.4212C14.8062 13.7475 13.73 14.825 12.405 14.825ZM14.4775 29.9813H10.3287V16.6462H14.4775V29.9813ZM20 0C8.95375 0 0 8.95375 0 20C0 31.045 8.95375 40 20 40C31.0462 40 40 31.045 40 20C40 8.95375 31.0462 0 20 0Z" fill="black"/>
<mask id="mask0_8965_12342" style="mask-type:luminance" maskUnits="userSpaceOnUse" x="0" y="0" width="40" height="40">
<path fill-rule="evenodd" clip-rule="evenodd" d="M30 29.9813H25.8563V23.4963C25.8563 21.95 25.8288 19.9613 23.7025 19.9613C21.5462 19.9613 21.2175 21.6462 21.2175 23.3862V29.9813H17.0775V16.6462H21.05V18.47H21.1075C21.66 17.4213 23.0125 16.315 25.0287 16.315C29.225 16.315 30 19.0763 30 22.6675V29.9813ZM12.405 14.825C11.0737 14.825 10 13.7475 10 12.4212C10 11.095 11.0737 10.0175 12.405 10.0175C13.73 10.0175 14.8062 11.095 14.8062 12.4212C14.8062 13.7475 13.73 14.825 12.405 14.825ZM14.4775 29.9813H10.3287V16.6462H14.4775V29.9813ZM20 0C8.95375 0 0 8.95375 0 20C0 31.045 8.95375 40 20 40C31.0462 40 40 31.045 40 20C40 8.95375 31.0462 0 20 0Z" fill="white"/>
</mask>
<g mask="url(#mask0_8965_12342)">
<rect width="40" height="40" fill="#050044"/>
</g>
</svg>
