<svg width="40" height="40" viewBox="0 0 40 40" fill="none" xmlns="http://www.w3.org/2000/svg">
<path fill-rule="evenodd" clip-rule="evenodd" d="M20 40C31.0457 40 40 31.0457 40 20C40 8.9543 31.0457 0 20 0C8.9543 0 0 8.9543 0 20C0 31.0457 8.9543 40 20 40ZM15.0529 8.07267C13.7754 8.13085 12.9024 8.33341 12.1401 8.63005C11.3505 8.93638 10.6822 9.34736 10.0143 10.0142C9.34636 10.681 8.93642 11.3504 8.63007 12.1399C8.33342 12.9027 8.13085 13.7752 8.07267 15.0526C8.01354 16.3321 8 16.7412 8 20C8 23.2588 8.01354 23.6679 8.07267 24.9474C8.13085 26.2249 8.33342 27.0973 8.63007 27.8601C8.93642 28.6491 9.34645 29.3193 10.0143 29.9858C10.6821 30.6524 11.3505 31.0628 12.1401 31.37C12.9039 31.6666 13.7754 31.8692 15.0529 31.9273C16.3331 31.9855 16.7415 32 20.0005 32C23.2594 32 23.6685 31.9865 24.948 31.9273C26.2257 31.8692 27.098 31.6666 27.8609 31.37C28.6499 31.0628 29.3188 30.6526 29.9867 29.9858C30.6546 29.319 31.0637 28.6491 31.3709 27.8601C31.6675 27.0973 31.8711 26.2248 31.9283 24.9474C31.9865 23.6669 32 23.2588 32 20C32 16.7412 31.9865 16.3321 31.9283 15.0526C31.8701 13.7751 31.6675 12.9022 31.3709 12.1399C31.0637 11.3509 30.6535 10.682 29.9867 10.0142C29.3199 9.3463 28.6499 8.93638 27.8619 8.63005C27.098 8.33341 26.2256 8.12989 24.949 8.07267C23.6695 8.0145 23.2604 8 20.0014 8C16.7425 8 16.3331 8.01354 15.0529 8.07267ZM12.9237 29.3549C13.3464 29.5196 13.9823 29.7144 15.1523 29.7677C16.4168 29.8259 16.7958 29.8375 20.0005 29.8375C23.2052 29.8375 23.5852 29.8259 24.8501 29.7677C26.0201 29.7145 26.6562 29.5196 27.0787 29.3549C27.6389 29.1368 28.0393 28.8766 28.459 28.4573C28.8787 28.038 29.1385 27.6382 29.3566 27.078C29.5203 26.6554 29.7162 26.0195 29.7694 24.8495C29.8276 23.5836 29.8392 23.2047 29.8392 20.0001C29.8392 16.7955 29.8276 16.4166 29.7694 15.1507C29.7163 13.9807 29.5214 13.3446 29.3566 12.9222C29.1385 12.362 28.8793 11.9616 28.459 11.5419C28.0387 11.1222 27.6389 10.8615 27.0787 10.6443C26.655 10.4811 26.0201 10.2848 24.8501 10.2315C23.5841 10.1743 23.2037 10.1617 20.0005 10.1617C16.7972 10.1617 16.4172 10.1733 15.1523 10.2315C13.9823 10.2847 13.3462 10.4796 12.9237 10.6443C12.3625 10.8615 11.9631 11.1216 11.5434 11.5419C11.1237 11.9622 10.8639 12.362 10.6458 12.9222C10.4826 13.3459 10.2862 13.9807 10.233 15.1507C10.1757 16.4166 10.1632 16.7955 10.1632 20.0001C10.1632 23.2047 10.1748 23.5846 10.233 24.8495C10.2861 26.0195 10.481 26.6556 10.6458 27.078C10.8629 27.6382 11.1231 28.0376 11.5434 28.4573C11.9637 28.877 12.3635 29.1368 12.9237 29.3549ZM24.9665 13.5938C24.9662 14.3891 25.6106 15.0341 26.406 15.0344C27.2013 15.0347 27.8463 14.3903 27.8466 13.595C27.8469 12.7997 27.2024 12.1547 26.4071 12.1544H26.4065C25.6116 12.1548 24.9672 12.7989 24.9665 13.5938ZM20.0005 26.1619C16.5971 26.1619 13.8384 23.4032 13.8384 20C13.8384 16.5968 16.5971 13.8381 20.0005 13.8381C23.4038 13.8381 26.1626 16.5968 26.1626 20C26.1626 23.4032 23.4038 26.1619 20.0005 26.1619ZM20.0005 15.9997C17.7913 15.9997 16.001 17.7909 16.001 20C16.001 22.2091 17.7913 24.0003 20.0005 24.0003C22.2096 24.0003 24.001 22.2091 24.001 20C24.001 17.7909 22.2096 15.9997 20.0005 15.9997Z" fill="black"/>
<mask id="mask0_8965_12364" style="mask-type:luminance" maskUnits="userSpaceOnUse" x="0" y="0" width="40" height="40">
<path fill-rule="evenodd" clip-rule="evenodd" d="M20 40C31.0457 40 40 31.0457 40 20C40 8.9543 31.0457 0 20 0C8.9543 0 0 8.9543 0 20C0 31.0457 8.9543 40 20 40ZM15.0529 8.07267C13.7754 8.13085 12.9024 8.33341 12.1401 8.63005C11.3505 8.93638 10.6822 9.34736 10.0143 10.0142C9.34636 10.681 8.93642 11.3504 8.63007 12.1399C8.33342 12.9027 8.13085 13.7752 8.07267 15.0526C8.01354 16.3321 8 16.7412 8 20C8 23.2588 8.01354 23.6679 8.07267 24.9474C8.13085 26.2249 8.33342 27.0973 8.63007 27.8601C8.93642 28.6491 9.34645 29.3193 10.0143 29.9858C10.6821 30.6524 11.3505 31.0628 12.1401 31.37C12.9039 31.6666 13.7754 31.8692 15.0529 31.9273C16.3331 31.9855 16.7415 32 20.0005 32C23.2594 32 23.6685 31.9865 24.948 31.9273C26.2257 31.8692 27.098 31.6666 27.8609 31.37C28.6499 31.0628 29.3188 30.6526 29.9867 29.9858C30.6546 29.319 31.0637 28.6491 31.3709 27.8601C31.6675 27.0973 31.8711 26.2248 31.9283 24.9474C31.9865 23.6669 32 23.2588 32 20C32 16.7412 31.9865 16.3321 31.9283 15.0526C31.8701 13.7751 31.6675 12.9022 31.3709 12.1399C31.0637 11.3509 30.6535 10.682 29.9867 10.0142C29.3199 9.3463 28.6499 8.93638 27.8619 8.63005C27.098 8.33341 26.2256 8.12989 24.949 8.07267C23.6695 8.0145 23.2604 8 20.0014 8C16.7425 8 16.3331 8.01354 15.0529 8.07267ZM12.9237 29.3549C13.3464 29.5196 13.9823 29.7144 15.1523 29.7677C16.4168 29.8259 16.7958 29.8375 20.0005 29.8375C23.2052 29.8375 23.5852 29.8259 24.8501 29.7677C26.0201 29.7145 26.6562 29.5196 27.0787 29.3549C27.6389 29.1368 28.0393 28.8766 28.459 28.4573C28.8787 28.038 29.1385 27.6382 29.3566 27.078C29.5203 26.6554 29.7162 26.0195 29.7694 24.8495C29.8276 23.5836 29.8392 23.2047 29.8392 20.0001C29.8392 16.7955 29.8276 16.4166 29.7694 15.1507C29.7163 13.9807 29.5214 13.3446 29.3566 12.9222C29.1385 12.362 28.8793 11.9616 28.459 11.5419C28.0387 11.1222 27.6389 10.8615 27.0787 10.6443C26.655 10.4811 26.0201 10.2848 24.8501 10.2315C23.5841 10.1743 23.2037 10.1617 20.0005 10.1617C16.7972 10.1617 16.4172 10.1733 15.1523 10.2315C13.9823 10.2847 13.3462 10.4796 12.9237 10.6443C12.3625 10.8615 11.9631 11.1216 11.5434 11.5419C11.1237 11.9622 10.8639 12.362 10.6458 12.9222C10.4826 13.3459 10.2862 13.9807 10.233 15.1507C10.1757 16.4166 10.1632 16.7955 10.1632 20.0001C10.1632 23.2047 10.1748 23.5846 10.233 24.8495C10.2861 26.0195 10.481 26.6556 10.6458 27.078C10.8629 27.6382 11.1231 28.0376 11.5434 28.4573C11.9637 28.877 12.3635 29.1368 12.9237 29.3549ZM24.9665 13.5938C24.9662 14.3891 25.6106 15.0341 26.406 15.0344C27.2013 15.0347 27.8463 14.3903 27.8466 13.595C27.8469 12.7997 27.2024 12.1547 26.4071 12.1544H26.4065C25.6116 12.1548 24.9672 12.7989 24.9665 13.5938ZM20.0005 26.1619C16.5971 26.1619 13.8384 23.4032 13.8384 20C13.8384 16.5968 16.5971 13.8381 20.0005 13.8381C23.4038 13.8381 26.1626 16.5968 26.1626 20C26.1626 23.4032 23.4038 26.1619 20.0005 26.1619ZM20.0005 15.9997C17.7913 15.9997 16.001 17.7909 16.001 20C16.001 22.2091 17.7913 24.0003 20.0005 24.0003C22.2096 24.0003 24.001 22.2091 24.001 20C24.001 17.7909 22.2096 15.9997 20.0005 15.9997Z" fill="white"/>
</mask>
<g mask="url(#mask0_8965_12364)">
<rect width="40" height="40" fill="#050044"/>
</g>
</svg>
