<svg width="132" height="36" viewBox="0 0 132 36" fill="none" xmlns="http://www.w3.org/2000/svg">
<path fill-rule="evenodd" clip-rule="evenodd" d="M13.3 29.608C9.37486 29.608 6.19385 26.4188 6.19385 22.4856C6.19385 18.5515 9.37486 15.3623 13.3 15.3623C17.2242 15.3623 20.4061 18.5515 20.4061 22.4856V22.4872C20.4053 26.4205 17.2242 29.608 13.3 29.608ZM13.3001 9.31247C6.04148 9.2261 0.0871206 15.0546 0.000945661 22.329C-0.0852293 29.6051 5.72909 35.5723 12.9877 35.6595C13.0921 35.6603 13.1965 35.6603 13.3001 35.6595C15.8911 35.6653 18.425 34.8896 20.5694 33.4304V35.3007H26.4442V22.4868C26.4384 15.2132 20.557 9.31745 13.3001 9.31247Z" fill="#6BC4E8"/>
<path fill-rule="evenodd" clip-rule="evenodd" d="M118.857 29.608C114.933 29.608 111.751 26.4188 111.751 22.4856C111.751 18.5515 114.933 15.3623 118.857 15.3623C122.781 15.3623 125.963 18.5515 125.963 22.4856V22.4872C125.962 26.4205 122.78 29.608 118.857 29.608ZM118.857 9.3125C111.598 9.39887 105.784 15.3669 105.87 22.6421C105.955 29.7961 111.72 35.574 118.857 35.6595C121.449 35.6662 123.983 34.8896 126.126 33.4304V35.3007H132V22.4868C131.995 15.2133 126.114 9.31748 118.857 9.3125Z" fill="#6BC4E8"/>
<path fill-rule="evenodd" clip-rule="evenodd" d="M41.5995 35.7013C34.3351 35.7055 28.4437 29.8056 28.4404 22.5245C28.4371 15.2434 34.3227 9.33853 41.5871 9.33521C45.8262 9.33272 49.8052 11.3783 52.2777 14.829L47.4312 18.3279C45.1128 15.1039 40.6259 14.3747 37.4101 16.6985C34.1943 19.0222 33.4668 23.5194 35.7852 26.7426C38.1036 29.9667 42.5905 30.6959 45.8063 28.3721C46.5728 27.8181 47.2224 27.118 47.7188 26.3116L52.7699 29.4401C50.386 33.3311 46.156 35.703 41.5995 35.7013Z" fill="#6BC4E8"/>
<path fill-rule="evenodd" clip-rule="evenodd" d="M61.1499 35.3007H55.3994V14.2515L61.1499 10.094V35.3007Z" fill="#6BC4E8"/>
<path fill-rule="evenodd" clip-rule="evenodd" d="M103.002 20.3462V35.3011H96.7594V20.3462C96.7586 17.9584 94.8271 16.0242 92.4449 16.025C90.0643 16.0259 88.1353 17.9601 88.1345 20.3462V35.3011H81.8098V20.3462C81.8106 17.9584 79.8808 16.0225 77.4985 16.0217C75.1163 16.0209 73.1848 17.9551 73.184 20.3428V20.3462V35.3011H66.9404V20.3462C66.9479 14.4952 71.6875 9.75718 77.525 9.76466C80.3365 9.76881 83.0311 10.895 85.0123 12.8948C87.0001 10.8867 89.7072 9.75967 92.5294 9.76632C98.2808 9.76632 103.002 14.501 103.002 20.3462Z" fill="#6BC4E8"/>
<path fill-rule="evenodd" clip-rule="evenodd" d="M47.0098 3.75391L55.261 9.261V3.75391H47.0098Z" fill="#6BC4E8"/>
<path fill-rule="evenodd" clip-rule="evenodd" d="M55.8037 0.298828L61.5169 3.32187L55.8534 3.29364L55.8037 3.20976V0.298828Z" fill="#B9D9EB"/>
<path fill-rule="evenodd" clip-rule="evenodd" d="M61.5789 5.39675L55.8027 9.25861V3.75317H61.0859C61.5823 3.75816 61.9825 4.16095 61.9866 4.6576C61.9609 4.95077 61.8126 5.21902 61.5789 5.39675Z" fill="#F75200"/>
</svg>
