<svg width="25" height="26" viewBox="0 0 25 26" fill="none" xmlns="http://www.w3.org/2000/svg">
<path d="M1.04102 4.81557C1.04102 4.13523 1.58836 3.58789 2.26869 3.58789H22.73C23.4103 3.58789 23.9577 4.13523 23.9577 4.81557C23.9577 5.49591 23.4103 6.04325 22.73 6.04325H2.26869C1.58836 6.04325 1.04102 5.49591 1.04102 4.81557ZM1.04102 13.0001C1.04102 12.3198 1.58836 11.7724 2.26869 11.7724H22.73C23.4103 11.7724 23.9577 12.3198 23.9577 13.0001C23.9577 13.6804 23.4103 14.2278 22.73 14.2278H2.26869C1.58836 14.2278 1.04102 13.6804 1.04102 13.0001ZM23.9577 21.1846C23.9577 21.865 23.4103 22.4123 22.73 22.4123H2.26869C1.58836 22.4123 1.04102 21.865 1.04102 21.1846C1.04102 20.5043 1.58836 19.9569 2.26869 19.9569H22.73C23.4103 19.9569 23.9577 20.5043 23.9577 21.1846Z" fill="white"/>
</svg>
