<svg width="21" height="20" viewBox="0 0 21 20" fill="none" xmlns="http://www.w3.org/2000/svg">
<path fill-rule="evenodd" clip-rule="evenodd" d="M10.5002 12.5003C10.2869 12.5003 10.0735 12.4186 9.91104 12.2561L5.74438 8.08946C5.41854 7.76362 5.41854 7.23696 5.74438 6.91112C6.07021 6.58529 6.59688 6.58529 6.92271 6.91112L10.5002 10.4886L14.0777 6.91112C14.4035 6.58529 14.9302 6.58529 15.256 6.91112C15.5819 7.23696 15.5819 7.76362 15.256 8.08946L11.0894 12.2561C10.9269 12.4186 10.7135 12.5003 10.5002 12.5003Z" fill="#31373D"/>
<mask id="mask0_10276_1235" style="mask-type:luminance" maskUnits="userSpaceOnUse" x="5" y="6" width="11" height="7">
<path fill-rule="evenodd" clip-rule="evenodd" d="M10.5002 12.5003C10.2869 12.5003 10.0735 12.4186 9.91104 12.2561L5.74438 8.08946C5.41854 7.76362 5.41854 7.23696 5.74438 6.91112C6.07021 6.58529 6.59688 6.58529 6.92271 6.91112L10.5002 10.4886L14.0777 6.91112C14.4035 6.58529 14.9302 6.58529 15.256 6.91112C15.5819 7.23696 15.5819 7.76362 15.256 8.08946L11.0894 12.2561C10.9269 12.4186 10.7135 12.5003 10.5002 12.5003Z" fill="white"/>
</mask>
<g mask="url(#mask0_10276_1235)">
<rect x="2.16602" y="1.66675" width="16.6667" height="16.6667" fill="#1C1548"/>
</g>
</svg>
