<svg width="60" height="60" viewBox="0 0 60 60" fill="none" xmlns="http://www.w3.org/2000/svg">
<path d="M30 60C46.5685 60 60 46.5685 60 30C60 13.4315 46.5685 0 30 0C13.4315 0 0 13.4315 0 30C0 46.5685 13.4315 60 30 60Z" fill="#F7F7F7"/>
<path fill-rule="evenodd" clip-rule="evenodd" d="M38.8214 42.3314C38.8214 43.092 38.5283 43.8215 38.0065 44.3594C37.4846 44.8972 36.7769 45.1994 36.0389 45.1994C35.3009 45.1994 34.5932 44.8972 34.0713 44.3594C33.5495 43.8215 33.2564 43.092 33.2564 42.3314C33.2564 41.5707 33.5495 40.8412 34.0713 40.3033C34.5932 39.7655 35.3009 39.4633 36.0389 39.4633C36.7769 39.4633 37.4846 39.7655 38.0065 40.3033C38.5283 40.8412 38.8214 41.5707 38.8214 42.3314ZM24.6467 42.3314C24.6467 43.092 24.3535 43.8215 23.8317 44.3594C23.3099 44.8972 22.6021 45.1994 21.8641 45.1994C21.1262 45.1994 20.4184 44.8972 19.8966 44.3594C19.3748 43.8215 19.0816 43.092 19.0816 42.3314C19.0816 41.5707 19.3748 40.8412 19.8966 40.3033C20.4184 39.7655 21.1262 39.4633 21.8641 39.4633C22.6021 39.4633 23.3099 39.7655 23.8317 40.3033C24.3535 40.8412 24.6467 41.5707 24.6467 42.3314ZM33.0593 23.6172H17.0566L20.2112 37.3194H38.0646L39.8082 31.2124C38.0336 30.8782 36.4137 29.9552 35.1953 28.584C33.9768 27.2128 33.2268 25.4686 33.0593 23.6172Z" fill="#6BC4E8"/>
<mask id="mask0_10328_11337" style="mask-type:luminance" maskUnits="userSpaceOnUse" x="34" y="15" width="15" height="15">
<path d="M34.3486 15.6924H48.2164V29.9863H34.3486V15.6924Z" fill="#E52CA7"/>
</mask>
<g mask="url(#mask0_10328_11337)">
<path fill-rule="evenodd" clip-rule="evenodd" d="M42.1615 26.7657L41.1875 25.8384L43.0497 23.7586H36.9434V22.3897H43.0497L41.1875 20.3143L42.1615 19.3869L45.4731 23.0741L42.16 26.7657H42.1615ZM41.2832 15.6924C39.4446 15.6943 37.6819 16.448 36.3818 17.7881C35.0817 19.1281 34.3505 20.945 34.3486 22.8401C34.3509 24.7349 35.0823 26.5515 36.3823 27.8912C37.6823 29.2309 39.4449 29.9844 41.2832 29.9863C43.121 29.9836 44.8828 29.2298 46.1823 27.8901C47.4817 26.5505 48.2127 24.7344 48.2149 22.8401C48.213 20.9455 47.4822 19.129 46.1828 17.7891C44.8833 16.4491 43.1213 15.6951 41.2832 15.6924Z" fill="#F75200"/>
</g>
<path fill-rule="evenodd" clip-rule="evenodd" d="M16.8893 16.1633L18.3316 22.4323H16.5994L15.5569 17.9002H11.0771V16.1633H16.8864H16.8893Z" fill="#6BC4E8" stroke="#6BC4E8" stroke-width="0.25"/>
</svg>
