<svg width="51" height="50" viewBox="0 0 51 50" fill="none" xmlns="http://www.w3.org/2000/svg">
<path d="M25.5 50C39.3071 50 50.5 38.8071 50.5 25C50.5 11.1929 39.3071 0 25.5 0C11.6929 0 0.5 11.1929 0.5 25C0.5 38.8071 11.6929 50 25.5 50Z" fill="#F7F7F7"/>
<path fill-rule="evenodd" clip-rule="evenodd" d="M12.2065 26.6942L23.9391 14.8709C24.0899 14.719 24.2736 14.6038 24.4761 14.5342C24.6785 14.4647 24.8942 14.4426 25.1065 14.4698L32.9147 15.4605C33.2232 15.4997 33.5098 15.641 33.7289 15.8618C33.948 16.0826 34.0871 16.3702 34.124 16.6791L35.0938 24.7523C35.1192 24.9636 35.0959 25.1779 35.0258 25.3789C34.9557 25.5798 34.8405 25.7621 34.6891 25.9116L22.9472 37.5116C22.6844 37.7713 22.3293 37.9162 21.9599 37.9145C21.5904 37.9127 21.2367 37.7645 20.9763 37.5023L12.2054 28.6593C11.9462 28.398 11.8008 28.0448 11.8008 27.6768C11.8008 27.3087 11.9462 26.9555 12.2054 26.6942H12.2065Z" fill="#6BC4E8"/>
<path d="M26.8474 22.4639C27.1585 22.7977 27.4329 23.1852 27.6705 23.6264C27.9081 24.0676 28.0523 24.5287 28.1032 25.0095C27.5093 25.0491 26.9266 25.083 26.3553 25.1113C26.3553 24.8285 26.2959 24.5485 26.1771 24.2713C26.0583 23.9941 25.9112 23.7622 25.7358 23.5755L24.3782 24.9331C24.5309 25.2216 24.678 25.5214 24.8194 25.8326C24.9608 26.1437 25.0542 26.4633 25.0994 26.7914C25.1447 27.1195 25.1249 27.4448 25.04 27.7672C24.9552 28.0896 24.76 28.4036 24.4545 28.7091C24.1434 29.0202 23.8153 29.2352 23.4703 29.354C23.1365 29.4728 22.7999 29.5152 22.4605 29.4812C22.1268 29.453 21.8015 29.3596 21.4847 29.2012C21.1736 29.0485 20.8907 28.8505 20.6362 28.6073L20.0167 29.2267L19.3888 28.5988L20.0083 27.9793C19.6519 27.6003 19.3492 27.1619 19.1003 26.6641C18.8571 26.1607 18.7213 25.6402 18.693 25.1028C18.9929 25.0972 19.2927 25.0915 19.5925 25.0859C19.9036 25.0802 20.2119 25.0717 20.5174 25.0604C20.5061 25.2188 20.5146 25.3857 20.5428 25.561C20.5768 25.7307 20.622 25.8948 20.6786 26.0532C20.7352 26.2116 20.8002 26.3615 20.8738 26.5029C20.953 26.6387 21.0406 26.7546 21.1368 26.8508L22.6217 25.3659C22.4464 25.0547 22.288 24.7436 22.1466 24.4325C22.0108 24.127 21.9259 23.8216 21.892 23.5161C21.8581 23.2106 21.8863 22.9108 21.9768 22.6166C22.073 22.3168 22.2625 22.0255 22.5454 21.7427C22.8225 21.4655 23.1252 21.276 23.4533 21.1741C23.787 21.0667 24.118 21.0299 24.4461 21.0638C24.7798 21.0921 25.0994 21.1798 25.4049 21.3269C25.716 21.4683 25.9876 21.6437 26.2195 21.853L26.805 21.2675L27.4244 21.8869L26.8474 22.4639ZM25.1334 22.9391C24.9637 22.8033 24.7657 22.7241 24.5394 22.7015C24.3244 22.6789 24.1236 22.7609 23.9369 22.9476C23.7559 23.1286 23.6711 23.3209 23.6824 23.5246C23.6937 23.7282 23.7672 23.9432 23.903 24.1694L25.1334 22.9391ZM21.7562 27.4872C21.9599 27.6682 22.172 27.7559 22.3926 27.7502C22.6246 27.7446 22.8395 27.6428 23.0375 27.4448C23.2355 27.2468 23.3232 27.0403 23.3006 26.8253C23.2892 26.6104 23.2214 26.3841 23.0969 26.1465L21.7562 27.4872Z" fill="#F7F7FB"/>
<path fill-rule="evenodd" clip-rule="evenodd" d="M36.6744 12.9407C36.9756 13.2431 36.9977 13.7198 36.7384 14.0454L36.6733 14.1186L30.6849 20.107C30.5343 20.2556 30.3328 20.3414 30.1213 20.347C29.9098 20.3525 29.704 20.2775 29.5458 20.137C29.3876 19.9965 29.2887 19.8011 29.2692 19.5904C29.2497 19.3797 29.311 19.1695 29.4407 19.0024L29.5058 18.9291L35.4942 12.9407C35.5716 12.8633 35.6635 12.8019 35.7647 12.76C35.8658 12.7181 35.9743 12.6965 36.0837 12.6965C36.1932 12.6965 36.3016 12.7181 36.4028 12.76C36.504 12.8019 36.5959 12.8633 36.6733 12.9407H36.6744Z" fill="#F75200"/>
</svg>
