<svg width="60" height="60" viewBox="0 0 60 60" fill="none" xmlns="http://www.w3.org/2000/svg">
<path d="M30 60C46.5685 60 60 46.5685 60 30C60 13.4315 46.5685 0 30 0C13.4315 0 0 13.4315 0 30C0 46.5685 13.4315 60 30 60Z" fill="#F7F7F7"/>
<path fill-rule="evenodd" clip-rule="evenodd" d="M16.6152 23.6758H24.7159V18.4614H16.6152V23.6758ZM30.6809 23.6758H38.8053V18.4614H30.6809V23.6758Z" fill="#6BC4E8"/>
<mask id="mask0_10328_11358" style="mask-type:luminance" maskUnits="userSpaceOnUse" x="16" y="24" width="23" height="15">
<path d="M16.6152 24.7979H38.8065V38.3949H16.6152V24.7979Z" fill="#6BC4E8"/>
</mask>
<g mask="url(#mask0_10328_11358)">
<path fill-rule="evenodd" clip-rule="evenodd" d="M38.6406 29.491C38.6967 29.491 38.7504 29.4985 38.8053 29.4998V24.7979H30.6809V31.3451L27.6984 28.0472L24.7146 31.3439V24.7979H16.6152V38.3949H32.4635C32.1846 37.6581 32.041 36.8772 32.0393 36.0895C32.0413 34.3401 32.7375 32.6629 33.975 31.4259C35.2125 30.1889 36.8904 29.493 38.6406 29.491Z" fill="#6BC4E8"/>
</g>
<mask id="mask1_10328_11358" style="mask-type:luminance" maskUnits="userSpaceOnUse" x="25" y="18" width="5" height="11">
<path d="M25.8389 18.4614H29.5586V28.4301H25.8389V18.4614Z" fill="#E52CA7"/>
</mask>
<g mask="url(#mask1_10328_11358)">
<path fill-rule="evenodd" clip-rule="evenodd" d="M25.8389 28.4301L27.6975 26.3728L29.5586 28.4301V18.4614H25.8389V28.4301Z" fill="#F75200"/>
</g>
<path fill-rule="evenodd" clip-rule="evenodd" d="M37.8049 39.0059L35.2203 36.0184L36.2769 35.1207L37.8948 37.0072L40.9958 33.9973L41.9625 34.9848L37.8049 39.0059ZM44.1205 36.0908C44.0981 33.0721 41.6394 30.6133 38.6407 30.6133C37.1881 30.6153 35.7955 31.193 34.7685 32.2199C33.7415 33.2467 33.1638 34.6388 33.1621 36.0908C33.1638 37.5426 33.7415 38.9346 34.7686 39.9612C35.7957 40.9878 37.1882 41.5653 38.6407 41.567C40.0934 41.5657 41.4863 40.9883 42.5136 39.9617C43.541 38.935 44.1189 37.5429 44.1205 36.0908Z" fill="#F75200"/>
</svg>
