<svg width="22" height="20" viewBox="0 0 22 20" fill="none" xmlns="http://www.w3.org/2000/svg">
<path fill-rule="evenodd" clip-rule="evenodd" d="M11.0002 12.5003C10.7762 12.5003 10.5522 12.4186 10.3816 12.2561L6.00659 8.08946C5.66447 7.76362 5.66447 7.23696 6.00659 6.91112C6.34872 6.58529 6.90172 6.58529 7.24384 6.91112L11.0002 10.4886L14.7566 6.91112C15.0987 6.58529 15.6517 6.58529 15.9938 6.91112C16.336 7.23696 16.336 7.76362 15.9938 8.08946L11.6188 12.2561C11.4482 12.4186 11.2242 12.5003 11.0002 12.5003Z" fill="#31373D"/>
<mask id="mask0_10157_12520" style="mask-type:luminance" maskUnits="userSpaceOnUse" x="5" y="6" width="12" height="7">
<path fill-rule="evenodd" clip-rule="evenodd" d="M11.0002 12.5003C10.7762 12.5003 10.5522 12.4186 10.3816 12.2561L6.00659 8.08946C5.66447 7.76362 5.66447 7.23696 6.00659 6.91112C6.34872 6.58529 6.90172 6.58529 7.24384 6.91112L11.0002 10.4886L14.7566 6.91112C15.0987 6.58529 15.6517 6.58529 15.9938 6.91112C16.336 7.23696 16.336 7.76362 15.9938 8.08946L11.6188 12.2561C11.4482 12.4186 11.2242 12.5003 11.0002 12.5003Z" fill="white"/>
</mask>
<g mask="url(#mask0_10157_12520)">
<rect x="2.25" y="1.66675" width="17.5" height="16.6667" fill="white"/>
</g>
</svg>
