<svg width="25" height="26" viewBox="0 0 25 26" fill="none" xmlns="http://www.w3.org/2000/svg">
<path d="M16.0814 7.27092C16.0814 6.32125 15.7041 5.41047 15.0326 4.73896C14.3611 4.06744 13.4503 3.69019 12.5007 3.69019C11.551 3.69019 10.6402 4.06744 9.96869 4.73896C9.29718 5.41047 8.91992 6.32125 8.91992 7.27092C8.91992 8.22058 9.29718 9.13136 9.96869 9.80287C10.6402 10.4744 11.551 10.8516 12.5007 10.8516C13.4503 10.8516 14.3611 10.4744 15.0326 9.80287C15.7041 9.13136 16.0814 8.22058 16.0814 7.27092ZM6.77148 7.27092C6.77148 5.75145 7.37509 4.29421 8.44952 3.21978C9.52395 2.14536 10.9812 1.54175 12.5007 1.54175C14.0201 1.54175 15.4774 2.14536 16.5518 3.21978C17.6262 4.29421 18.2298 5.75145 18.2298 7.27092C18.2298 8.79038 17.6262 10.2476 16.5518 11.322C15.4774 12.3965 14.0201 13.0001 12.5007 13.0001C10.9812 13.0001 9.52395 12.3965 8.44952 11.322C7.37509 10.2476 6.77148 8.79038 6.77148 7.27092ZM4.68123 22.31H20.3201C19.9217 19.4767 17.4868 17.297 14.5461 17.297H10.4552C7.51449 17.297 5.07959 19.4767 4.68123 22.31ZM2.47461 23.1291C2.47461 18.7203 6.04639 15.1485 10.4552 15.1485H14.5461C18.9549 15.1485 22.5267 18.7203 22.5267 23.1291C22.5267 23.8631 21.9314 24.4584 21.1973 24.4584H3.80396C3.06991 24.4584 2.47461 23.8631 2.47461 23.1291Z" fill="white"/>
</svg>
